<?xml version="1.0" encoding="UTF-8" standalone="no"?>
<!-- Created with Inkscape (http://www.inkscape.org/) -->

<svg
   xmlns:dc="http://purl.org/dc/elements/1.1/"
   xmlns:cc="http://creativecommons.org/ns#"
   xmlns:rdf="http://www.w3.org/1999/02/22-rdf-syntax-ns#"
   xmlns:svg="http://www.w3.org/2000/svg"
   xmlns="http://www.w3.org/2000/svg"
   xmlns:sodipodi="http://sodipodi.sourceforge.net/DTD/sodipodi-0.dtd"
   xmlns:inkscape="http://www.inkscape.org/namespaces/inkscape"
   width="32"
   height="32"
   id="svg2"
   version="1.1"
   inkscape:version="0.48.5 r10040"
   sodipodi:docname="gplogo.svg"
   inkscape:export-filename="C:\Users\gpaton\Documents\GitHub\MellowArpeggiation.github.io\images\gplogo.png"
   inkscape:export-xdpi="90"
   inkscape:export-ydpi="90">
  <defs
     id="defs4" />
  <sodipodi:namedview
     id="base"
     pagecolor="#ffffff"
     bordercolor="#666666"
     borderopacity="1.0"
     inkscape:pageopacity="0.0"
     inkscape:pageshadow="2"
     inkscape:zoom="0.5"
     inkscape:cx="23.93814"
     inkscape:cy="16.820772"
     inkscape:document-units="px"
     inkscape:current-layer="layer1"
     showgrid="false"
     inkscape:window-width="1920"
     inkscape:window-height="1018"
     inkscape:window-x="1358"
     inkscape:window-y="-8"
     inkscape:window-maximized="1" />
  <metadata
     id="metadata7">
    <rdf:RDF>
      <cc:Work
         rdf:about="">
        <dc:format>image/svg+xml</dc:format>
        <dc:type
           rdf:resource="http://purl.org/dc/dcmitype/StillImage" />
        <dc:title></dc:title>
      </cc:Work>
    </rdf:RDF>
  </metadata>
  <g
     inkscape:label="Layer 1"
     inkscape:groupmode="layer"
     id="layer1"
     transform="translate(0,-1020.3622)">
    <path
       sodipodi:type="arc"
       style="fill:#000000;fill-opacity:1;stroke:none"
       id="path2985"
       sodipodi:cx="16.0625"
       sodipodi:cy="16.0625"
       sodipodi:rx="16"
       sodipodi:ry="16"
       d="m 32.0625,16.0625 a 16,16 0 1 1 -32,0 16,16 0 1 1 32,0 z"
       transform="translate(-0.0625,1020.2997)" />
    <path
       inkscape:connector-curvature="0"
       id="path3778"
       style="font-size:10px;font-style:normal;font-variant:normal;font-weight:bold;font-stretch:normal;text-align:start;line-height:125%;letter-spacing:0px;word-spacing:0px;writing-mode:lr-tb;text-anchor:start;fill:#ffffff;fill-opacity:1;stroke:none;font-family:Secret Code;-inkscape-font-specification:Secret Code Bold"
       d="m 16,1040.3615 c -2.072274,0 -3.876454,-0.768 -5.412539,-2.3041 -1.536094,-1.5361 -2.304138,-3.3298 -2.304138,-5.3812 0,-2.0481 0.768863,-3.8411 2.306585,-5.3788 1.537718,-1.5377 3.341079,-2.3066 5.410092,-2.3066 2.059857,0 3.689934,0.5832 4.89023,1.7496 1.200271,1.1663 1.666938,1.8938 1.400005,2.1822 l 0,-3.9318 1.426442,0 0,15.0574 c -1.9e-5,2.0481 -0.768878,3.8411 -2.306586,5.3788 -1.537734,1.5377 -3.341095,2.3066 -5.410091,2.3066 l -5.259322,0 0.134129,-1.3638 5.125197,0 c 1.666289,0 3.131235,-0.6318 4.394843,-1.8954 1.26358,-1.2636 1.895378,-2.739 1.89539,-4.4262 l 0,-3.6185 c 0.266944,0.2924 -0.198931,1.0208 -1.397556,2.1852 -1.198666,1.1644 -2.829555,1.7466 -4.892677,1.7466 z m 0,-1.3637 c 1.666291,0 3.131236,-0.6319 4.394843,-1.8955 1.263582,-1.2636 1.895379,-2.739 1.895392,-4.4261 -1.3e-5,-1.684 -0.632629,-3.1585 -1.89784,-4.4238 -1.265236,-1.2651 -2.729367,-1.8977 -4.392395,-1.8978 -1.666306,1e-4 -3.131255,0.6318 -4.394843,1.8954 -1.263597,1.2636 -1.895395,2.739 -1.895392,4.4262 -3e-6,1.6904 0.630976,3.1666 1.892944,4.4286 1.261958,1.2619 2.727718,1.893 4.397291,1.893 z" />
    <path
       inkscape:connector-curvature="0"
       id="path3780"
       style="font-size:10px;font-style:normal;font-variant:normal;font-weight:bold;font-stretch:normal;text-align:start;line-height:125%;letter-spacing:0px;word-spacing:0px;writing-mode:lr-tb;text-anchor:start;fill:#ffffff;fill-opacity:1;stroke:none;font-family:Secret Code;-inkscape-font-specification:Secret Code Bold"
       d="m 15.999998,1040.3615 c -2.066401,0 -3.698923,-0.5823 -4.897573,-1.7471 -1.1986539,-1.1647 -1.6628749,-1.8929 -1.3926619,-2.1847 l 0,11.3039 -1.4264382,0 0,-22.7428 1.4264382,0 0,3.9318 c -0.270215,-0.2892 0.194826,-1.0167 1.3951089,-2.1828 1.200281,-1.166 2.831989,-1.749 4.895127,-1.749 2.065732,0 3.868279,0.7698 5.407645,2.309 1.539338,1.5394 2.309014,3.3316 2.309031,5.3764 -1.7e-5,2.0481 -0.768878,3.841 -2.306582,5.3787 -1.537738,1.5377 -3.341099,2.3066 -5.410094,2.3066 z m 0,-1.3637 c 1.66629,0 3.131236,-0.6319 4.394843,-1.8955 1.263582,-1.2636 1.895378,-2.739 1.895394,-4.4261 -1.6e-5,-1.684 -0.632627,-3.1585 -1.897842,-4.4238 -1.265237,-1.2651 -2.729368,-1.8977 -4.392395,-1.8978 -1.666306,1e-4 -3.131252,0.6318 -4.394843,1.8954 -1.263598,1.2636 -1.8953959,2.739 -1.8953919,4.4262 -4e-6,1.6904 0.6309799,3.1666 1.8929429,4.4286 1.261958,1.2619 2.727723,1.893 4.397292,1.893 z" />
  </g>
</svg>
